<mxfile host="app.diagrams.net" modified="2023-04-14T04:38:13.074Z" agent="Mozilla/5.0 (Windows NT 10.0; Win64; x64) AppleWebKit/537.36 (KHTML, like Gecko) Chrome/112.0.0.0 Safari/537.36 Edg/112.0.1722.39" etag="AEqZaIWPkfM59zPkIvOU" version="21.1.5" type="google">
  <diagram name="PÃ¡gina-1" id="XwKMnSegxOBEOdOsmYez">
    <mxGraphModel grid="1" page="1" gridSize="10" guides="1" tooltips="1" connect="1" arrows="1" fold="1" pageScale="1" pageWidth="827" pageHeight="1169" math="0" shadow="0">
      <root>
        <mxCell id="0" />
        <mxCell id="1" parent="0" />
        <mxCell id="dcb48vtWQPddEjnmjEV9-44" value="Exercises" style="rounded=0;whiteSpace=wrap;html=1;fillColor=#dae8fc;strokeColor=#6c8ebf;" vertex="1" parent="1">
          <mxGeometry x="570" y="440" width="180" height="20" as="geometry" />
        </mxCell>
        <mxCell id="dcb48vtWQPddEjnmjEV9-45" value="PK" style="rounded=0;whiteSpace=wrap;html=1;strokeWidth=0.2;" vertex="1" parent="1">
          <mxGeometry x="570" y="460" width="40" height="20" as="geometry" />
        </mxCell>
        <mxCell id="dcb48vtWQPddEjnmjEV9-46" value="ID" style="rounded=0;whiteSpace=wrap;html=1;strokeWidth=0.2;" vertex="1" parent="1">
          <mxGeometry x="610" y="460" width="80" height="20" as="geometry" />
        </mxCell>
        <mxCell id="dcb48vtWQPddEjnmjEV9-47" value="int" style="rounded=0;whiteSpace=wrap;html=1;strokeWidth=0.2;" vertex="1" parent="1">
          <mxGeometry x="690" y="460" width="60" height="20" as="geometry" />
        </mxCell>
        <mxCell id="dcb48vtWQPddEjnmjEV9-48" value="FK" style="rounded=0;whiteSpace=wrap;html=1;strokeWidth=0.2;" vertex="1" parent="1">
          <mxGeometry x="570" y="480" width="40" height="20" as="geometry" />
        </mxCell>
        <mxCell id="dcb48vtWQPddEjnmjEV9-49" value="training_id" style="rounded=0;whiteSpace=wrap;html=1;strokeWidth=0.2;" vertex="1" parent="1">
          <mxGeometry x="610" y="480" width="80" height="20" as="geometry" />
        </mxCell>
        <mxCell id="dcb48vtWQPddEjnmjEV9-50" value="int" style="rounded=0;whiteSpace=wrap;html=1;strokeWidth=0.2;" vertex="1" parent="1">
          <mxGeometry x="690" y="480" width="60" height="20" as="geometry" />
        </mxCell>
        <mxCell id="dcb48vtWQPddEjnmjEV9-51" value="" style="rounded=0;whiteSpace=wrap;html=1;strokeWidth=0.2;" vertex="1" parent="1">
          <mxGeometry x="570" y="500" width="40" height="20" as="geometry" />
        </mxCell>
        <mxCell id="dcb48vtWQPddEjnmjEV9-52" value="exercise" style="rounded=0;whiteSpace=wrap;html=1;strokeWidth=0.2;" vertex="1" parent="1">
          <mxGeometry x="610" y="500" width="80" height="20" as="geometry" />
        </mxCell>
        <mxCell id="dcb48vtWQPddEjnmjEV9-53" value="string" style="rounded=0;whiteSpace=wrap;html=1;strokeWidth=0.2;" vertex="1" parent="1">
          <mxGeometry x="690" y="500" width="60" height="20" as="geometry" />
        </mxCell>
        <mxCell id="dcb48vtWQPddEjnmjEV9-54" value="" style="rounded=0;whiteSpace=wrap;html=1;strokeWidth=0.2;" vertex="1" parent="1">
          <mxGeometry x="570" y="520" width="40" height="20" as="geometry" />
        </mxCell>
        <mxCell id="dcb48vtWQPddEjnmjEV9-55" value="group" style="rounded=0;whiteSpace=wrap;html=1;strokeWidth=0.2;" vertex="1" parent="1">
          <mxGeometry x="610" y="520" width="80" height="20" as="geometry" />
        </mxCell>
        <mxCell id="dcb48vtWQPddEjnmjEV9-56" value="string" style="rounded=0;whiteSpace=wrap;html=1;strokeWidth=0.2;" vertex="1" parent="1">
          <mxGeometry x="690" y="520" width="60" height="20" as="geometry" />
        </mxCell>
        <mxCell id="dcb48vtWQPddEjnmjEV9-57" value="" style="rounded=0;whiteSpace=wrap;html=1;strokeWidth=0.2;" vertex="1" parent="1">
          <mxGeometry x="570" y="540" width="40" height="20" as="geometry" />
        </mxCell>
        <mxCell id="dcb48vtWQPddEjnmjEV9-58" value="series" style="rounded=0;whiteSpace=wrap;html=1;strokeWidth=0.2;" vertex="1" parent="1">
          <mxGeometry x="610" y="540" width="80" height="20" as="geometry" />
        </mxCell>
        <mxCell id="dcb48vtWQPddEjnmjEV9-59" value="string" style="rounded=0;whiteSpace=wrap;html=1;strokeWidth=0.2;" vertex="1" parent="1">
          <mxGeometry x="690" y="540" width="60" height="20" as="geometry" />
        </mxCell>
        <mxCell id="dcb48vtWQPddEjnmjEV9-60" value="" style="rounded=0;whiteSpace=wrap;html=1;strokeWidth=0.2;" vertex="1" parent="1">
          <mxGeometry x="570" y="560" width="40" height="20" as="geometry" />
        </mxCell>
        <mxCell id="dcb48vtWQPddEjnmjEV9-61" value="repetitions" style="rounded=0;whiteSpace=wrap;html=1;strokeWidth=0.2;" vertex="1" parent="1">
          <mxGeometry x="610" y="560" width="80" height="20" as="geometry" />
        </mxCell>
        <mxCell id="dcb48vtWQPddEjnmjEV9-62" value="string" style="rounded=0;whiteSpace=wrap;html=1;strokeWidth=0.2;" vertex="1" parent="1">
          <mxGeometry x="690" y="560" width="60" height="20" as="geometry" />
        </mxCell>
        <mxCell id="dcb48vtWQPddEjnmjEV9-63" value="" style="rounded=0;whiteSpace=wrap;html=1;strokeWidth=0.2;" vertex="1" parent="1">
          <mxGeometry x="570" y="580" width="40" height="20" as="geometry" />
        </mxCell>
        <mxCell id="dcb48vtWQPddEjnmjEV9-64" value="weight" style="rounded=0;whiteSpace=wrap;html=1;strokeWidth=0.2;" vertex="1" parent="1">
          <mxGeometry x="610" y="580" width="80" height="20" as="geometry" />
        </mxCell>
        <mxCell id="dcb48vtWQPddEjnmjEV9-65" value="float" style="rounded=0;whiteSpace=wrap;html=1;strokeWidth=0.2;" vertex="1" parent="1">
          <mxGeometry x="690" y="580" width="60" height="20" as="geometry" />
        </mxCell>
        <mxCell id="dcb48vtWQPddEjnmjEV9-66" value="" style="rounded=0;whiteSpace=wrap;html=1;strokeWidth=0.2;" vertex="1" parent="1">
          <mxGeometry x="570" y="600" width="40" height="20" as="geometry" />
        </mxCell>
        <mxCell id="dcb48vtWQPddEjnmjEV9-67" value="link" style="rounded=0;whiteSpace=wrap;html=1;strokeWidth=0.2;" vertex="1" parent="1">
          <mxGeometry x="610" y="600" width="80" height="20" as="geometry" />
        </mxCell>
        <mxCell id="dcb48vtWQPddEjnmjEV9-68" value="string" style="rounded=0;whiteSpace=wrap;html=1;strokeWidth=0.2;" vertex="1" parent="1">
          <mxGeometry x="690" y="600" width="60" height="20" as="geometry" />
        </mxCell>
        <mxCell id="dcb48vtWQPddEjnmjEV9-69" value="FK" style="rounded=0;whiteSpace=wrap;html=1;strokeWidth=0.2;" vertex="1" parent="1">
          <mxGeometry x="570" y="620" width="40" height="20" as="geometry" />
        </mxCell>
        <mxCell id="dcb48vtWQPddEjnmjEV9-70" value="user_id" style="rounded=0;whiteSpace=wrap;html=1;strokeWidth=0.2;" vertex="1" parent="1">
          <mxGeometry x="610" y="620" width="80" height="20" as="geometry" />
        </mxCell>
        <mxCell id="dcb48vtWQPddEjnmjEV9-71" value="int" style="rounded=0;whiteSpace=wrap;html=1;strokeWidth=0.2;" vertex="1" parent="1">
          <mxGeometry x="690" y="620" width="60" height="20" as="geometry" />
        </mxCell>
        <mxCell id="dcb48vtWQPddEjnmjEV9-72" value="FK" style="rounded=0;whiteSpace=wrap;html=1;strokeWidth=0.2;" vertex="1" parent="1">
          <mxGeometry x="570" y="640" width="40" height="20" as="geometry" />
        </mxCell>
        <mxCell id="dcb48vtWQPddEjnmjEV9-73" value="personal_id" style="rounded=0;whiteSpace=wrap;html=1;strokeWidth=0.2;" vertex="1" parent="1">
          <mxGeometry x="610" y="640" width="80" height="20" as="geometry" />
        </mxCell>
        <mxCell id="dcb48vtWQPddEjnmjEV9-74" value="int" style="rounded=0;whiteSpace=wrap;html=1;strokeWidth=0.2;" vertex="1" parent="1">
          <mxGeometry x="690" y="640" width="60" height="20" as="geometry" />
        </mxCell>
        <mxCell id="dcb48vtWQPddEjnmjEV9-88" value="" style="edgeStyle=entityRelationEdgeStyle;fontSize=12;html=1;endArrow=ERoneToMany;rounded=0;exitX=1;exitY=0.5;exitDx=0;exitDy=0;entryX=0;entryY=0.5;entryDx=0;entryDy=0;" edge="1" parent="1" source="dcb48vtWQPddEjnmjEV9-14" target="dcb48vtWQPddEjnmjEV9-69">
          <mxGeometry width="100" height="100" relative="1" as="geometry">
            <mxPoint x="330" y="740" as="sourcePoint" />
            <mxPoint x="430" y="640" as="targetPoint" />
          </mxGeometry>
        </mxCell>
        <mxCell id="dcb48vtWQPddEjnmjEV9-90" value="" style="edgeStyle=entityRelationEdgeStyle;fontSize=12;html=1;endArrow=ERoneToMany;rounded=0;entryX=0;entryY=0.5;entryDx=0;entryDy=0;exitX=1;exitY=0.5;exitDx=0;exitDy=0;" edge="1" parent="1" source="dcb48vtWQPddEjnmjEV9-31" target="dcb48vtWQPddEjnmjEV9-72">
          <mxGeometry width="100" height="100" relative="1" as="geometry">
            <mxPoint x="550" y="510" as="sourcePoint" />
            <mxPoint x="650" y="410" as="targetPoint" />
          </mxGeometry>
        </mxCell>
        <mxCell id="dcb48vtWQPddEjnmjEV9-93" value="" style="edgeStyle=entityRelationEdgeStyle;fontSize=12;html=1;endArrow=ERoneToMany;rounded=0;entryX=0;entryY=0.5;entryDx=0;entryDy=0;exitX=1;exitY=0.5;exitDx=0;exitDy=0;" edge="1" parent="1" source="dcb48vtWQPddEjnmjEV9-78" target="dcb48vtWQPddEjnmjEV9-48">
          <mxGeometry width="100" height="100" relative="1" as="geometry">
            <mxPoint x="540" y="290" as="sourcePoint" />
            <mxPoint x="640" y="430" as="targetPoint" />
          </mxGeometry>
        </mxCell>
        <mxCell id="dcb48vtWQPddEjnmjEV9-95" value="" style="group" connectable="0" vertex="1" parent="1">
          <mxGeometry x="260" y="680" width="180" height="120" as="geometry" />
        </mxCell>
        <mxCell id="dcb48vtWQPddEjnmjEV9-28" value="Personal" style="rounded=0;whiteSpace=wrap;html=1;fillColor=#dae8fc;strokeColor=#6c8ebf;" vertex="1" parent="dcb48vtWQPddEjnmjEV9-95">
          <mxGeometry width="180" height="20" as="geometry" />
        </mxCell>
        <mxCell id="dcb48vtWQPddEjnmjEV9-29" value="PK" style="rounded=0;whiteSpace=wrap;html=1;strokeWidth=0.2;" vertex="1" parent="dcb48vtWQPddEjnmjEV9-95">
          <mxGeometry y="20" width="40" height="20" as="geometry" />
        </mxCell>
        <mxCell id="dcb48vtWQPddEjnmjEV9-30" value="ID" style="rounded=0;whiteSpace=wrap;html=1;strokeWidth=0.2;" vertex="1" parent="dcb48vtWQPddEjnmjEV9-95">
          <mxGeometry x="40" y="20" width="80" height="20" as="geometry" />
        </mxCell>
        <mxCell id="dcb48vtWQPddEjnmjEV9-31" value="int" style="rounded=0;whiteSpace=wrap;html=1;strokeWidth=0.2;" vertex="1" parent="dcb48vtWQPddEjnmjEV9-95">
          <mxGeometry x="120" y="20" width="60" height="20" as="geometry" />
        </mxCell>
        <mxCell id="dcb48vtWQPddEjnmjEV9-32" value="" style="rounded=0;whiteSpace=wrap;html=1;strokeWidth=0.2;" vertex="1" parent="dcb48vtWQPddEjnmjEV9-95">
          <mxGeometry y="40" width="40" height="20" as="geometry" />
        </mxCell>
        <mxCell id="dcb48vtWQPddEjnmjEV9-33" value="name" style="rounded=0;whiteSpace=wrap;html=1;strokeWidth=0.2;" vertex="1" parent="dcb48vtWQPddEjnmjEV9-95">
          <mxGeometry x="40" y="40" width="80" height="20" as="geometry" />
        </mxCell>
        <mxCell id="dcb48vtWQPddEjnmjEV9-34" value="string" style="rounded=0;whiteSpace=wrap;html=1;strokeWidth=0.2;" vertex="1" parent="dcb48vtWQPddEjnmjEV9-95">
          <mxGeometry x="120" y="40" width="60" height="20" as="geometry" />
        </mxCell>
        <mxCell id="dcb48vtWQPddEjnmjEV9-35" value="" style="rounded=0;whiteSpace=wrap;html=1;strokeWidth=0.2;" vertex="1" parent="dcb48vtWQPddEjnmjEV9-95">
          <mxGeometry y="60" width="40" height="20" as="geometry" />
        </mxCell>
        <mxCell id="dcb48vtWQPddEjnmjEV9-36" value="email" style="rounded=0;whiteSpace=wrap;html=1;strokeWidth=0.2;" vertex="1" parent="dcb48vtWQPddEjnmjEV9-95">
          <mxGeometry x="40" y="60" width="80" height="20" as="geometry" />
        </mxCell>
        <mxCell id="dcb48vtWQPddEjnmjEV9-37" value="string" style="rounded=0;whiteSpace=wrap;html=1;strokeWidth=0.2;" vertex="1" parent="dcb48vtWQPddEjnmjEV9-95">
          <mxGeometry x="120" y="60" width="60" height="20" as="geometry" />
        </mxCell>
        <mxCell id="dcb48vtWQPddEjnmjEV9-38" value="" style="rounded=0;whiteSpace=wrap;html=1;strokeWidth=0.2;" vertex="1" parent="dcb48vtWQPddEjnmjEV9-95">
          <mxGeometry y="80" width="40" height="20" as="geometry" />
        </mxCell>
        <mxCell id="dcb48vtWQPddEjnmjEV9-39" value="role" style="rounded=0;whiteSpace=wrap;html=1;strokeWidth=0.2;" vertex="1" parent="dcb48vtWQPddEjnmjEV9-95">
          <mxGeometry x="40" y="80" width="80" height="20" as="geometry" />
        </mxCell>
        <mxCell id="dcb48vtWQPddEjnmjEV9-40" value="string" style="rounded=0;whiteSpace=wrap;html=1;strokeWidth=0.2;" vertex="1" parent="dcb48vtWQPddEjnmjEV9-95">
          <mxGeometry x="120" y="80" width="60" height="20" as="geometry" />
        </mxCell>
        <mxCell id="dcb48vtWQPddEjnmjEV9-41" value="" style="rounded=0;whiteSpace=wrap;html=1;strokeWidth=0.2;" vertex="1" parent="dcb48vtWQPddEjnmjEV9-95">
          <mxGeometry y="100" width="40" height="20" as="geometry" />
        </mxCell>
        <mxCell id="dcb48vtWQPddEjnmjEV9-42" value="hash" style="rounded=0;whiteSpace=wrap;html=1;strokeWidth=0.2;" vertex="1" parent="dcb48vtWQPddEjnmjEV9-95">
          <mxGeometry x="40" y="100" width="80" height="20" as="geometry" />
        </mxCell>
        <mxCell id="dcb48vtWQPddEjnmjEV9-43" value="string" style="rounded=0;whiteSpace=wrap;html=1;strokeWidth=0.2;" vertex="1" parent="dcb48vtWQPddEjnmjEV9-95">
          <mxGeometry x="120" y="100" width="60" height="20" as="geometry" />
        </mxCell>
        <mxCell id="dcb48vtWQPddEjnmjEV9-96" value="" style="group" connectable="0" vertex="1" parent="1">
          <mxGeometry x="260" y="430" width="180" height="60" as="geometry" />
        </mxCell>
        <mxCell id="dcb48vtWQPddEjnmjEV9-75" value="Training" style="rounded=0;whiteSpace=wrap;html=1;fillColor=#dae8fc;strokeColor=#6c8ebf;" vertex="1" parent="dcb48vtWQPddEjnmjEV9-96">
          <mxGeometry width="180" height="20" as="geometry" />
        </mxCell>
        <mxCell id="dcb48vtWQPddEjnmjEV9-76" value="PK" style="rounded=0;whiteSpace=wrap;html=1;strokeWidth=0.2;" vertex="1" parent="dcb48vtWQPddEjnmjEV9-96">
          <mxGeometry y="20" width="40" height="20" as="geometry" />
        </mxCell>
        <mxCell id="dcb48vtWQPddEjnmjEV9-77" value="ID" style="rounded=0;whiteSpace=wrap;html=1;strokeWidth=0.2;" vertex="1" parent="dcb48vtWQPddEjnmjEV9-96">
          <mxGeometry x="40" y="20" width="80" height="20" as="geometry" />
        </mxCell>
        <mxCell id="dcb48vtWQPddEjnmjEV9-78" value="int" style="rounded=0;whiteSpace=wrap;html=1;strokeWidth=0.2;" vertex="1" parent="dcb48vtWQPddEjnmjEV9-96">
          <mxGeometry x="120" y="20" width="60" height="20" as="geometry" />
        </mxCell>
        <mxCell id="dcb48vtWQPddEjnmjEV9-79" value="" style="rounded=0;whiteSpace=wrap;html=1;strokeWidth=0.2;" vertex="1" parent="dcb48vtWQPddEjnmjEV9-96">
          <mxGeometry y="40" width="40" height="20" as="geometry" />
        </mxCell>
        <mxCell id="dcb48vtWQPddEjnmjEV9-80" value="name" style="rounded=0;whiteSpace=wrap;html=1;strokeWidth=0.2;" vertex="1" parent="dcb48vtWQPddEjnmjEV9-96">
          <mxGeometry x="40" y="40" width="80" height="20" as="geometry" />
        </mxCell>
        <mxCell id="dcb48vtWQPddEjnmjEV9-81" value="string" style="rounded=0;whiteSpace=wrap;html=1;strokeWidth=0.2;" vertex="1" parent="dcb48vtWQPddEjnmjEV9-96">
          <mxGeometry x="120" y="40" width="60" height="20" as="geometry" />
        </mxCell>
        <mxCell id="dcb48vtWQPddEjnmjEV9-97" value="" style="group" connectable="0" vertex="1" parent="1">
          <mxGeometry x="260" y="525" width="180" height="120" as="geometry" />
        </mxCell>
        <mxCell id="dcb48vtWQPddEjnmjEV9-10" value="Users" style="rounded=0;whiteSpace=wrap;html=1;fillColor=#dae8fc;strokeColor=#6c8ebf;" vertex="1" parent="dcb48vtWQPddEjnmjEV9-97">
          <mxGeometry width="180" height="20" as="geometry" />
        </mxCell>
        <mxCell id="dcb48vtWQPddEjnmjEV9-12" value="PK" style="rounded=0;whiteSpace=wrap;html=1;strokeWidth=0.2;" vertex="1" parent="dcb48vtWQPddEjnmjEV9-97">
          <mxGeometry y="20" width="40" height="20" as="geometry" />
        </mxCell>
        <mxCell id="dcb48vtWQPddEjnmjEV9-13" value="ID" style="rounded=0;whiteSpace=wrap;html=1;strokeWidth=0.2;" vertex="1" parent="dcb48vtWQPddEjnmjEV9-97">
          <mxGeometry x="40" y="20" width="80" height="20" as="geometry" />
        </mxCell>
        <mxCell id="dcb48vtWQPddEjnmjEV9-14" value="int" style="rounded=0;whiteSpace=wrap;html=1;strokeWidth=0.2;" vertex="1" parent="dcb48vtWQPddEjnmjEV9-97">
          <mxGeometry x="120" y="20" width="60" height="20" as="geometry" />
        </mxCell>
        <mxCell id="dcb48vtWQPddEjnmjEV9-16" value="" style="rounded=0;whiteSpace=wrap;html=1;strokeWidth=0.2;" vertex="1" parent="dcb48vtWQPddEjnmjEV9-97">
          <mxGeometry y="40" width="40" height="20" as="geometry" />
        </mxCell>
        <mxCell id="dcb48vtWQPddEjnmjEV9-17" value="name" style="rounded=0;whiteSpace=wrap;html=1;strokeWidth=0.2;" vertex="1" parent="dcb48vtWQPddEjnmjEV9-97">
          <mxGeometry x="40" y="40" width="80" height="20" as="geometry" />
        </mxCell>
        <mxCell id="dcb48vtWQPddEjnmjEV9-18" value="string" style="rounded=0;whiteSpace=wrap;html=1;strokeWidth=0.2;" vertex="1" parent="dcb48vtWQPddEjnmjEV9-97">
          <mxGeometry x="120" y="40" width="60" height="20" as="geometry" />
        </mxCell>
        <mxCell id="dcb48vtWQPddEjnmjEV9-19" value="" style="rounded=0;whiteSpace=wrap;html=1;strokeWidth=0.2;" vertex="1" parent="dcb48vtWQPddEjnmjEV9-97">
          <mxGeometry y="60" width="40" height="20" as="geometry" />
        </mxCell>
        <mxCell id="dcb48vtWQPddEjnmjEV9-20" value="email" style="rounded=0;whiteSpace=wrap;html=1;strokeWidth=0.2;" vertex="1" parent="dcb48vtWQPddEjnmjEV9-97">
          <mxGeometry x="40" y="60" width="80" height="20" as="geometry" />
        </mxCell>
        <mxCell id="dcb48vtWQPddEjnmjEV9-21" value="string" style="rounded=0;whiteSpace=wrap;html=1;strokeWidth=0.2;" vertex="1" parent="dcb48vtWQPddEjnmjEV9-97">
          <mxGeometry x="120" y="60" width="60" height="20" as="geometry" />
        </mxCell>
        <mxCell id="dcb48vtWQPddEjnmjEV9-22" value="" style="rounded=0;whiteSpace=wrap;html=1;strokeWidth=0.2;" vertex="1" parent="dcb48vtWQPddEjnmjEV9-97">
          <mxGeometry y="80" width="40" height="20" as="geometry" />
        </mxCell>
        <mxCell id="dcb48vtWQPddEjnmjEV9-23" value="role" style="rounded=0;whiteSpace=wrap;html=1;strokeWidth=0.2;" vertex="1" parent="dcb48vtWQPddEjnmjEV9-97">
          <mxGeometry x="40" y="80" width="80" height="20" as="geometry" />
        </mxCell>
        <mxCell id="dcb48vtWQPddEjnmjEV9-24" value="string" style="rounded=0;whiteSpace=wrap;html=1;strokeWidth=0.2;" vertex="1" parent="dcb48vtWQPddEjnmjEV9-97">
          <mxGeometry x="120" y="80" width="60" height="20" as="geometry" />
        </mxCell>
        <mxCell id="dcb48vtWQPddEjnmjEV9-25" value="" style="rounded=0;whiteSpace=wrap;html=1;strokeWidth=0.2;" vertex="1" parent="dcb48vtWQPddEjnmjEV9-97">
          <mxGeometry y="100" width="40" height="20" as="geometry" />
        </mxCell>
        <mxCell id="dcb48vtWQPddEjnmjEV9-26" value="hash" style="rounded=0;whiteSpace=wrap;html=1;strokeWidth=0.2;" vertex="1" parent="dcb48vtWQPddEjnmjEV9-97">
          <mxGeometry x="40" y="100" width="80" height="20" as="geometry" />
        </mxCell>
        <mxCell id="dcb48vtWQPddEjnmjEV9-27" value="string" style="rounded=0;whiteSpace=wrap;html=1;strokeWidth=0.2;" vertex="1" parent="dcb48vtWQPddEjnmjEV9-97">
          <mxGeometry x="120" y="100" width="60" height="20" as="geometry" />
        </mxCell>
      </root>
    </mxGraphModel>
  </diagram>
</mxfile>
